<svg width="16" height="17" viewBox="0 0 16 17" fill="none" xmlns="http://www.w3.org/2000/svg">
<g clip-path="url(#clip0_2030_2269)">
<path d="M11.0791 0.5C11.1163 0.5 11.1536 0.5 11.1929 0.5C11.2842 1.62835 10.8536 2.47146 10.3301 3.082C9.81654 3.68834 9.11325 4.2764 7.97577 4.18717C7.89989 3.07498 8.33128 2.29441 8.854 1.68526C9.33878 1.11757 10.2276 0.612414 11.0791 0.5Z" fill="white"/>
<path d="M14.5225 12.2444C14.5225 12.2557 14.5225 12.2655 14.5225 12.2761C14.2028 13.2442 13.7468 14.074 13.1904 14.844C12.6824 15.5431 12.0599 16.4838 10.9484 16.4838C9.98797 16.4838 9.35002 15.8663 8.36569 15.8494C7.32446 15.8325 6.75185 16.3658 5.79985 16.5C5.69095 16.5 5.58205 16.5 5.47526 16.5C4.77618 16.3988 4.212 15.8452 3.80099 15.3464C2.58903 13.8723 1.65248 11.9683 1.47824 9.53175C1.47824 9.29287 1.47824 9.05469 1.47824 8.81581C1.55201 7.072 2.39933 5.65418 3.52558 4.96705C4.11997 4.6017 4.93707 4.29046 5.84692 4.42957C6.23686 4.48999 6.63523 4.62348 6.98441 4.75557C7.31533 4.88274 7.72915 5.10827 8.1212 5.09632C8.38677 5.08859 8.65095 4.95018 8.91863 4.85252C9.70272 4.56938 10.4713 4.24479 11.4845 4.39725C12.7021 4.58133 13.5662 5.12232 14.1002 5.95699C13.0702 6.6125 12.2559 7.60034 12.395 9.28725C12.5187 10.8196 13.4096 11.7161 14.5225 12.2444Z" fill="white"/>
</g>
<defs>
<clipPath id="clip0_2030_2269">
<rect width="16" height="16" fill="white" transform="translate(0 0.5)"/>
</clipPath>
</defs>
</svg>
