<svg viewBox="0 0 25 24" fill="none" xmlns="http://www.w3.org/2000/svg">
<path fill-rule="evenodd" clip-rule="evenodd" d="M19.3253 10.6899C19.3298 10.7927 19.3321 10.8961 19.3321 11V14.1585C19.3321 14.4321 19.4408 14.6945 19.6342 14.888L21.0392 16.2929C21.3252 16.5789 21.4107 17.009 21.2559 17.3827C21.1012 17.7564 20.7365 18 20.3321 18L16.3321 18C16.3321 20.2091 14.5412 22 12.3321 22C10.1229 22 8.33206 20.2091 8.33206 18L4.33206 18C3.9276 18 3.56296 17.7564 3.40818 17.3827C3.2534 17.009 3.33896 16.5789 3.62495 16.2929L5.02989 14.888C5.22336 14.6945 5.33206 14.4321 5.33206 14.1585V11C5.33206 8.19905 6.97668 5.78439 9.35053 4.66519C9.51702 3.16592 10.7884 2 12.3321 2C12.6205 2 12.8994 2.04071 13.1634 2.11669C12.7299 2.6716 12.4006 3.31184 12.2048 4.00802C11.7126 4.07053 11.3321 4.49083 11.3321 5V5.34142C11.3321 5.76523 11.0649 6.14302 10.6653 6.28426C8.72197 6.97113 7.33206 8.82453 7.33206 11V14.1585C7.33206 14.8277 7.11076 15.4742 6.70867 16H9.33206H15.3321H17.9555C17.5534 15.4742 17.3321 14.8277 17.3321 14.1585V11C17.3321 10.9992 17.3321 10.9983 17.3321 10.9975C17.3878 10.9992 17.4438 11 17.5 11C18.1399 11 18.7542 10.8907 19.3253 10.6899ZM12.3321 20C11.2275 20 10.3321 19.1046 10.3321 18H14.3321C14.3321 19.1046 13.4366 20 12.3321 20Z" fill="#0F0626"/>
<circle cx="17.5" cy="5.5" r="3.5" fill="#FD0909"/>
</svg>
