<svg viewBox="0 0 25 24" fill="none" xmlns="http://www.w3.org/2000/svg">
<path d="M15.332 17H20.332L18.9271 15.5951C18.5461 15.2141 18.332 14.6973 18.332 14.1585V11C18.332 8.38757 16.6624 6.16509 14.332 5.34142V5C14.332 3.89543 13.4366 3 12.332 3C11.2275 3 10.332 3.89543 10.332 5V5.34142C8.00165 6.16509 6.33203 8.38757 6.33203 11V14.1585C6.33203 14.6973 6.11798 15.2141 5.73696 15.5951L4.33203 17H9.33203M15.332 17V18C15.332 19.6569 13.9889 21 12.332 21C10.6752 21 9.33203 19.6569 9.33203 18V17M15.332 17H9.33203" stroke="#0F0626" stroke-width="2" stroke-linecap="round" stroke-linejoin="round"/>
</svg>
