<svg viewBox="0 0 30 30" fill="none" xmlns="http://www.w3.org/2000/svg">
<circle cx="15.0004" cy="14.9999" r="9.6" fill="white"/>
<path fill-rule="evenodd" clip-rule="evenodd" d="M15.0005 26.52C21.3628 26.52 26.5205 21.3623 26.5205 15C26.5205 8.63766 21.3628 3.47998 15.0005 3.47998C8.63815 3.47998 3.48047 8.63766 3.48047 15C3.48047 21.3623 8.63815 26.52 15.0005 26.52ZM20.3387 13.1382C20.901 12.5759 20.901 11.6641 20.3387 11.1017C19.7763 10.5394 18.8646 10.5394 18.3022 11.1017L13.5605 15.8435L11.6987 13.9817C11.1363 13.4194 10.2246 13.4194 9.66223 13.9817C9.09988 14.5441 9.09988 15.4559 9.66223 16.0182L12.5422 18.8982C13.1046 19.4606 14.0163 19.4606 14.5787 18.8982L20.3387 13.1382Z" fill="#B2D992"/>
</svg>
