<svg width="17" height="17" viewBox="0 0 17 17" fill="none" xmlns="http://www.w3.org/2000/svg">
<g clip-path="url(#clip0_2030_2278)">
<path d="M16.3093 8.64968C16.3093 7.99417 16.2562 7.51582 16.141 7.01976H8.65573V9.97842H13.0494C12.9609 10.7137 12.4825 11.821 11.4195 12.565L11.4046 12.6641L13.7713 14.4976L13.9353 14.5139C15.4412 13.1231 16.3093 11.0769 16.3093 8.64968Z" fill="#4285F4"/>
<path d="M8.65574 16.445C10.8083 16.445 12.6154 15.7363 13.9353 14.5139L11.4195 12.565C10.7463 13.0345 9.84273 13.3623 8.65574 13.3623C6.54746 13.3623 4.75809 11.9716 4.12023 10.0493L4.02673 10.0573L1.56578 11.9618L1.5336 12.0513C2.84462 14.6556 5.53757 16.445 8.65574 16.445Z" fill="#34A853"/>
<path d="M4.1202 10.0493C3.9519 9.55326 3.85449 9.02171 3.85449 8.47252C3.85449 7.92327 3.9519 7.39179 4.11135 6.89573L4.10689 6.79008L1.61511 4.85493L1.53358 4.89371C0.993243 5.97445 0.683197 7.18806 0.683197 8.47252C0.683197 9.75698 0.993243 10.9705 1.53358 12.0513L4.1202 10.0493Z" fill="#FBBC05"/>
<path d="M8.65574 3.58269C10.1528 3.58269 11.1626 4.22934 11.7384 4.76974L13.9884 2.57285C12.6066 1.2884 10.8083 0.5 8.65574 0.5C5.53757 0.5 2.84462 2.28937 1.5336 4.89371L4.11137 6.89573C4.75809 4.97347 6.54746 3.58269 8.65574 3.58269Z" fill="#EB4335"/>
</g>
<defs>
<clipPath id="clip0_2030_2278">
<rect width="16" height="16" fill="white" transform="translate(0.5 0.5)"/>
</clipPath>
</defs>
</svg>
